<svg data-name="Layer 1" xmlns="http://www.w3.org/2000/svg" width="829" height="364.8290710449219" xmlns:xlink="http://www.w3.org/1999/xlink" style=""><rect id="backgroundrect" width="100%" height="100%" x="0" y="0" fill="none" stroke="none"/><g class="currentLayer" style=""><title>Layer 1</title><path d="M246.6298828125,300.3890075683594 c-2.8500900268554688,22.329999923706055 -13.330080032348633,42.7599983215332 -24.510250091552734,62.439998626708984 c-0.36963000893592834,0.6700000166893005 -0.75,1.3300000429153442 -1.1396499872207642,2 H104.77978515625 c-2.350100040435791,-0.6100000143051147 -4.6699299812316895,-1.2799999713897705 -6.980000019073486,-2 a127.02725219726562,127.02725219726562 0 0 1 -36.68994140625,-18.049999237060547 c-42.75,-30.799999237060547 -59.200191497802734,-89 -51.77000045776367,-141.14999389648438 c4.620120048522949,-32.400001525878906 18.8398494720459,-65.4800033569336 46.529788970947266,-82.93000030517578 c14.62012004852295,-9.229999542236328 33.399898529052734,-12.229999542236328 50.22999954223633,-8.800000190734863 c0.4404299855232239,0.07999999821186066 0.880370020866394,0.18000000715255737 1.3300800323486328,0.27000001072883606 c14.479999542236328,3.259999990463257 27.379880905151367,11.359999656677246 34.720211029052734,24.40999984741211 c13.19970989227295,23.450000762939453 5.339849948883057,52.5 -1.149899959564209,78.5999984741211 c-6.470210075378418,26.100000381469727 -9.980469703674316,57.34000015258789 8.799799919128418,76.58999633789062 c-6.20019006729126,-18.25 -0.08006999641656876,-40.02000045776367 14.729999542236328,-52.36000061035156 c11.189940452575684,-9.3100004196167 26.770000457763672,-12.800000190734863 40.97999954223633,-9.90999984741211 c1.3598599433898926,0.28999999165534973 2.7001900672912598,0.6200000047683716 4.019999980926514,1.0199999809265137 a44.59846115112305,44.59846115112305 0 0 1 9.169919967651367,3.8399999141693115 C240.849609375,246.72903442382812 249.81982421875,275.2190246582031 246.6298828125,300.3890075683594 z" fill="#b67d85" id="svg_1" class="" fill-opacity="1"/><path d="M246.6298828125,300.3890075683594 c-2.8500900268554688,22.329999923706055 -13.330080032348633,42.7599983215332 -24.510250091552734,62.439998626708984 c-0.36963000893592834,0.6700000166893005 -0.75,1.3300000429153442 -1.1396499872207642,2 H104.77978515625 c-2.350100040435791,-0.6100000143051147 -4.6699299812316895,-1.2799999713897705 -6.980000019073486,-2 a127.02725219726562,127.02725219726562 0 0 1 -36.68994140625,-18.049999237060547 c-42.75,-30.799999237060547 -59.200191497802734,-89 -51.77000045776367,-141.14999389648438 c4.620120048522949,-32.400001525878906 18.8398494720459,-65.4800033569336 46.529788970947266,-82.93000030517578 c14.62012004852295,-9.229999542236328 33.399898529052734,-12.229999542236328 50.22999954223633,-8.800000190734863 c0.4404299855232239,0.07999999821186066 0.880370020866394,0.18000000715255737 1.3300800323486328,0.27000001072883606 c14.479999542236328,3.259999990463257 27.379880905151367,11.359999656677246 34.720211029052734,24.40999984741211 c13.19970989227295,23.450000762939453 5.339849948883057,52.5 -1.149899959564209,78.5999984741211 c-6.470210075378418,26.100000381469727 -9.980469703674316,57.34000015258789 8.799799919128418,76.58999633789062 c-6.20019006729126,-18.25 -0.08006999641656876,-40.02000045776367 14.729999542236328,-52.36000061035156 c11.189940452575684,-9.3100004196167 26.770000457763672,-12.800000190734863 40.97999954223633,-9.90999984741211 c1.3598599433898926,0.28999999165534973 2.7001900672912598,0.6200000047683716 4.019999980926514,1.0199999809265137 a44.59846115112305,44.59846115112305 0 0 1 9.169919967651367,3.8399999141693115 C240.849609375,246.72903442382812 249.81982421875,275.2190246582031 246.6298828125,300.3890075683594 z" fill="#c39399" class="" fill-opacity="1" id="svg_40"/><path d="M177.73001098632812,362.8290100097656 c3.2197299003601074,0.75 6.449709892272949,1.409999966621399 9.69970989227295,2 H169.85986328125 c-2.300290107727051,-0.6200000047683716 -4.590330123901367,-1.2799999713897705 -6.859859943389893,-2 q-7.485340118408203,-2.3399999141693115 -14.740229606628418,-5.369999885559082 c-19.39990997314453,-8.140000343322754 -37.27000045776367,-20.360000610351562 -50.790000915527344,-36.619998931884766 a103.37091064453125,103.37091064453125 0 0 1 -16.020000457763672,-26.170000076293945 a118.85639190673828,118.85639190673828 0 0 1 -8.19970989227295,-33.4900016784668 c-2.450200080871582,-23.600000381469727 0.049800001084804535,-47.849998474121094 4.719729900360107,-71.02999877929688 a296.45050048828125,296.45050048828125 0 0 1 23.1601505279541,-69.47000122070312 q1.9049999713897705,-3.974940061569214 3.9399399757385254,-7.900000095367432 a1.5415799617767334,1.5415799617767334 0 0 1 1.0297900438308716,-0.8799999952316284 a1.7774100303649902,1.7774100303649902 0 0 1 1.3300800323486328,0.27000001072883606 a2.1061999797821045,2.1061999797821045 0 0 1 0.830079972743988,2.7799999713897705 a293.0387268066406,293.0387268066406 0 0 0 -24.580080032348633,66.95999908447266 c-5.319829940795898,22.670000076293945 -8.339850425720215,46.38999938964844 -7.310060024261475,69.69999694824219 c0.9800000190734863,21.780000686645508 6.67041015625,43.20000076293945 19.580080032348633,61.00994110107422 c11.789999961853027,16.260000228881836 28.069820404052734,29.079999923706055 46.080078125,37.810001373291016 A169.13099670410156,169.13099670410156 0 0 0 177.73001098632812,362.8290100097656 z" fill="#ffffff" id="svg_2" class="" fill-opacity="1"/><path d="M216.29000854492188,364.8290100097656 h-5.180180072784424 c-0.5800700187683105,-0.6600000262260437 -1.1401300430297852,-1.3300000429153442 -1.6899399757385254,-2 a110.4112319946289,110.4112319946289 0 0 1 -23.240230560302734,-49.65999984741211 a107.73445129394531,107.73445129394531 0 0 1 9.289999961853027,-67.05000305175781 a110.2406997680664,110.2406997680664 0 0 1 10.039999961853027,-16.6200008392334 c1.3598599433898926,0.28999999165534973 2.7001900672912598,0.6200000047683716 4.019999980926514,1.0199999809265137 a106.05621337890625,106.05621337890625 0 0 0 -19.770000457763672,45.34000015258789 A105.09491729736328,105.09491729736328 0 0 0 214.5,362.8290100097656 C215.07958984375,363.4989929199219 215.6796875,364.1690368652344 216.29000854492188,364.8290100097656 z" fill="#fff" id="svg_3"/><path d="M682.9293823242188,347.8221740722656 c0.7521899938583374,5.8933000564575195 3.518049955368042,11.285149574279785 6.468699932098389,16.47905921936035 c0.09754999727010727,0.17681999504566193 0.19794000685214996,0.35100001096725464 0.3007799983024597,0.5278300046920776 h30.66735076904297 c0.6202399730682373,-0.16099999845027924 1.2324800491333008,-0.33781999349594116 1.8421499729156494,-0.5278300046920776 a33.52490997314453,33.52490997314453 0 0 0 9.683150291442871,-4.763730049133301 c11.282500267028809,-8.128680229187012 15.62399959564209,-23.488719940185547 13.663000106811523,-37.252071380615234 c-1.2193299531936646,-8.550939559936523 -4.972179889678955,-17.281370162963867 -12.280059814453125,-21.88673973083496 a18.43729019165039,18.43729019165039 0 0 0 -13.256609916687012,-2.3224799633026123 c-0.1162400022149086,0.02112000063061714 -0.23235000669956207,0.04749999940395355 -0.35100001096725464,0.0712599977850914 a13.679630279541016,13.679630279541016 0 0 0 -9.163299560546875,6.442240238189697 c-3.483649969100952,6.188889980316162 -1.4092899560928345,13.85571002960205 0.30347999930381775,20.743999481201172 c1.707610011100769,6.888279914855957 2.634000062942505,15.133079528808594 -2.322429895401001,20.213510513305664 a12.643930435180664,12.643930435180664 0 0 0 -14.702879905700684,-16.434200286865234 c-0.35888999700546265,0.07654999941587448 -0.7126299738883972,0.16362999379634857 -1.0609999895095825,0.26921001076698303 a11.77068042755127,11.77068042755127 0 0 0 -2.420109987258911,1.013450026512146 C684.4548950195312,333.6603088378906 682.0874633789062,341.1793518066406 682.9293823242188,347.8221740722656 z" fill="#b67d85" id="svg_4" class="" fill-opacity="1"/><path d="M682.9293823242188,347.8221740722656 c0.7521899938583374,5.8933000564575195 3.518049955368042,11.285149574279785 6.468699932098389,16.47905921936035 c0.09754999727010727,0.17681999504566193 0.19794000685214996,0.35100001096725464 0.3007799983024597,0.5278300046920776 h30.66735076904297 c0.6202399730682373,-0.16099999845027924 1.2324800491333008,-0.33781999349594116 1.8421499729156494,-0.5278300046920776 a33.52490997314453,33.52490997314453 0 0 0 9.683150291442871,-4.763730049133301 c11.282500267028809,-8.128680229187012 15.62399959564209,-23.488719940185547 13.663000106811523,-37.252071380615234 c-1.2193299531936646,-8.550939559936523 -4.972179889678955,-17.281370162963867 -12.280059814453125,-21.88673973083496 a18.43729019165039,18.43729019165039 0 0 0 -13.256609916687012,-2.3224799633026123 c-0.1162400022149086,0.02112000063061714 -0.23235000669956207,0.04749999940395355 -0.35100001096725464,0.0712599977850914 a13.679630279541016,13.679630279541016 0 0 0 -9.163299560546875,6.442240238189697 c-3.483649969100952,6.188889980316162 -1.4092899560928345,13.85571002960205 0.30347999930381775,20.743999481201172 c1.707610011100769,6.888279914855957 2.634000062942505,15.133079528808594 -2.322429895401001,20.213510513305664 a12.643930435180664,12.643930435180664 0 0 0 -14.702879905700684,-16.434200286865234 c-0.35888999700546265,0.07654999941587448 -0.7126299738883972,0.16362999379634857 -1.0609999895095825,0.26921001076698303 a11.77068042755127,11.77068042755127 0 0 0 -2.420109987258911,1.013450026512146 C684.4548950195312,333.6603088378906 682.0874633789062,341.1793518066406 682.9293823242188,347.8221740722656 z" fill="#c39399" class="" fill-opacity="1" id="svg_41"/><path d="M701.1133422851562,364.3012390136719 c-0.8497400283813477,0.19794000685214996 -1.7021900415420532,0.3721100091934204 -2.5599300861358643,0.5278300046920776 h4.63700008392334 c0.6070899963378906,-0.1636199951171875 1.2114700078964233,-0.33781999349594116 1.810439944267273,-0.5278300046920776 q1.9755300283432007,-0.617579996585846 3.8902199268341064,-1.417240023612976 a34.90011978149414,34.90011978149414 0 0 0 13.404419898986816,-9.664690017700195 a27.28162956237793,27.28162956237793 0 0 0 4.228000164031982,-6.906740188598633 a31.368419647216797,31.368419647216797 0 0 0 2.1640000343322754,-8.838640213012695 a62.85792922973633,62.85792922973633 0 0 0 -1.2456200122833252,-18.7460994720459 a78.23848724365234,78.23848724365234 0 0 0 -6.112390041351318,-18.33441925048828 q-0.5027700066566467,-1.0490599870681763 -1.0398199558258057,-2.084939956665039 a0.4068399965763092,0.4068399965763092 0 0 0 -0.27178001403808594,-0.23225000500679016 a0.46908000111579895,0.46908000111579895 0 0 0 -0.35100001096725464,0.0712599977850914 a0.555869996547699,0.555869996547699 0 0 0 -0.21908000111579895,0.7336900234222412 a77.33812713623047,77.33812713623047 0 0 1 6.48714017868042,17.672000885009766 a68.02194213867188,68.02194213867188 0 0 1 1.929260015487671,18.395109176635742 a29.35059928894043,29.35059928894043 0 0 1 -5.167550086975098,16.101640701293945 a32.485801696777344,32.485801696777344 0 0 1 -12.161370277404785,9.978750228881836 A44.636600494384766,44.636600494384766 0 0 1 701.1133422851562,364.3012390136719 z" fill="#fff" id="svg_5"/><path d="M690.9366455078125,364.8290710449219 h1.3671400547027588 c0.1530900001525879,-0.17418000102043152 0.30090001225471497,-0.35100001096725464 0.44600000977516174,-0.5278300046920776 a29.139619827270508,29.139619827270508 0 0 0 6.133520126342773,-13.106180191040039 a28.433120727539062,28.433120727539062 0 0 0 -2.451809883117676,-17.695730209350586 a29.094999313354492,29.094999313354492 0 0 0 -2.649749994277954,-4.3863301277160645 c-0.35888999700546265,0.07654999941587448 -0.7126299738883972,0.16362999379634857 -1.0609999895095825,0.26921001076698303 a27.989999771118164,27.989999771118164 0 0 1 5.21766996383667,11.966059684753418 a27.736520767211914,27.736520767211914 0 0 1 -6.529399871826172,22.952999114990234 C691.256103515625,364.4780578613281 691.0977172851562,364.6548767089844 690.9366455078125,364.8290710449219 z" fill="#fff" id="svg_6"/><path d="M406.509765625,212.50820922851562 h-95.98100280761719 L309.51123046875,182.99752807617188 a8.859560012817383,8.859560012817383 0 0 1 9.930910110473633,-9.09862995147705 l55.854488372802734,6.839360237121582 h0.006839999929070473 a31.29060935974121,31.29060935974121 0 0 1 31.206300735473633,31.270000457763672 z" fill="#820024" id="svg_7"/><path d="M363.7308349609375,107.82901000976562 H296.7886962890625 a6.777120113372803,6.777120113372803 0 0 0 -6.778940200805664,6.778940200805664 v66.94210815429688 a6.777130126953125,6.777130126953125 0 0 0 6.778940200805664,6.778950214385986 h66.94210815429688 a6.777140140533447,6.777140140533447 0 0 0 6.7789998054504395,-6.778950214385986 V114.60797119140625 A6.777130126953125,6.777130126953125 0 0 0 363.7308349609375,107.82901000976562 z" fill="#f3e9eb" id="svg_8" class="" fill-opacity="1"/><path d="M348.65447998046875,157.88577270507812 l-31.606279373168945,6.1549201011657715 a7.210700035095215,7.210700035095215 0 0 1 -8.446590423583984,-5.693069934844971 L306.1719970703125,145.8714599609375 a7.210690021514893,7.210690021514893 0 0 1 5.693069934844971,-8.446579933166504 l31.606279373168945,-6.154910087585449 a7.210690021514893,7.210690021514893 0 0 1 8.446590423583984,5.693069934844971 l2.429569959640503,12.476160049438477 A7.21068000793457,7.21068000793457 0 0 1 348.65447998046875,157.88577270507812 z" fill="#5e1b24" id="svg_9" class="" fill-opacity="1"/><path d="M342.33099365234375,143.14639282226562 l-24.120580673217773,4.697169780731201 a1.6947400569915771,1.6947400569915771 0 0 1 -0.6478899717330933,-3.3269999027252197 l24.120590209960938,-4.697169780731201 a1.6947400569915771,1.6947400569915771 0 0 1 0.6478800177574158,3.3269999027252197 z" fill="#fff" id="svg_10"/><path d="M337.642578125,150.1024169921875 l-12.476160049438477,2.429569959640503 a1.6947400569915771,1.6947400569915771 0 0 1 -0.6478899717330933,-3.3269999027252197 l12.47616958618164,-2.429569959640503 a1.6947400569915771,1.6947400569915771 0 1 1 0.6478800177574158,3.3269999027252197 z" fill="#fff" id="svg_11"/><path d="M370.509765625,114.60797119140625 v8.897370338439941 h-80.5 v-8.897370338439941 a6.777120113372803,6.777120113372803 0 0 1 6.778940200805664,-6.778940200805664 h66.94210815429688 A6.777130126953125,6.777130126953125 0 0 1 370.509765625,114.60797119140625 z" fill="#cfa8ad" id="svg_12" class="" fill-opacity="1"/><path d="M531.260498046875,126.29156494140625 a10.742670059204102,10.742670059204102 0 0 0 -15.193309783935547,-6.364799976348877 l-92.09654998779297,-33.042728424072266 l-4.05633020401001,23.007259368896484 l91.80339813232422,25.245399475097656 a10.800909996032715,10.800909996032715 0 0 0 19.542789459228516,-8.84512996673584 z" fill="#ffb8b8" id="svg_13"/><path d="M531.260498046875,126.29156494140625 a10.742670059204102,10.742670059204102 0 0 0 -15.193309783935547,-6.364799976348877 l-92.09654998779297,-33.042728424072266 l-4.05633020401001,23.007259368896484 l91.80339813232422,25.245399475097656 a10.800909996032715,10.800909996032715 0 0 0 19.542789459228516,-8.84512996673584 z" opacity="0.2" id="svg_14"/><path d="M440.31732177734375,91.07638549804688 l-8.69674015045166,22.720230102539062 a4.816880226135254,4.816880226135254 0 0 1 -6.8608598709106445,2.4758100509643555 l-21.136240005493164,-11.896269798278809 a13.37736988067627,13.37736988067627 0 0 1 9.637459754943848,-24.958560943603516 l23.60219955444336,5.234640121459961 a4.816860198974609,4.816860198974609 0 0 1 3.4541800022125244,6.424149990081787 z" fill="#820024" id="svg_15"/><path d="M538.509765625,147.32901000976562 l-33,15 l4.332590103149414,16.31100082397461 a253.7354736328125,253.7354736328125 0 0 1 6.539760112762451,96.64984893798828 v0 l24.127660751342773,5.039150238037109 l20,-51 l-7,-58 z" fill="#820024" id="svg_16"/><path d="M603.259765625,222.82901000976562 c-21.682130813598633,0 -39.35157012939453,15.76200008392334 -40.20899963378906,35.5 h80.41799926757812 C642.611328125,238.59097290039062 624.94189453125,222.82901000976562 603.259765625,222.82901000976562 z" fill="#3f3d56" id="svg_17"/><path d="M586.38134765625,226.23056030273438 c-1.1284199953079224,-89.098388671875 -51.871578216552734,-80.90155029296875 -51.871578216552734,-80.90155029296875 s0.949209988117218,27.73332977294922 1.405269980430603,28.5958194732666 c32.33544921875,61.179569244384766 -21.030269622802734,132.90380859375 -88.95999908447266,119.7088623046875 q-1.9211399555206299,-0.37316998839378357 -3.6914100646972656,-0.7571399807929993 a34.581298828125,34.581298828125 0 0 1 -27.163280487060547,-38.762840270996094 c6.691579818725586,-53.735618591308594 -26.590620040893555,-52.784698486328125 -26.590620040893555,-52.784698486328125 H340.84326171875 l-25.27334976196289,-22.745899200439453 a7.34689998626709,7.34689998626709 0 0 0 -11.808679580688477,2.920949935913086 l-3.251460075378418,8.824999809265137 s-48,5 -44,52 h14.839839935302734 a29.966840744018555,29.966840744018555 0 0 0 0.16016000509262085,4 l110.75092315673828,-0.900439977645874 c6.491869926452637,-0.05277999863028526 12.222249984741211,5.2076802253723145 12.24899959564209,11.69970989227295 a11.753080368041992,11.753080368041992 0 0 1 -12.144430160522461,11.795940399169922 l-17.855459213256836,-0.5952100157737732 c-5.5,24.5 8,41 22.875,51.375 a83.14839935302734,83.14839935302734 0 0 0 47.61766052246094,14.625 h48.50733947753906 c63,0 74,-53 74,-53 C590.509765625,267.3290100097656 586.38134765625,226.23056030273438 586.38134765625,226.23056030273438 z" fill="#3f3d56" id="svg_18" class=""/><circle cx="600.259765625" cy="307.07904052734375" r="56.25" fill="#3f3d56" id="svg_19"/><circle cx="600.259765625" cy="307.07904052734375" r="13.786760330200195" fill="#820024" id="svg_20" class="" fill-opacity="1"/><circle cx="316.259765625" cy="298.57904052734375" r="64.75" fill="#3f3d56" id="svg_21"/><circle cx="316.259765625" cy="298.57904052734375" r="15.870100021362305" fill="#820024" id="svg_22" class="" fill-opacity="1"/><path d="M505.603515625,166.76113891601562 L493.72998046875,134.51162719726562 a13.638429641723633,13.638429641723633 0 0 1 8.086910247802734,-17.510740280151367 l34.040000915527344,-12.53125 a23.997610092163086,23.997610092163086 0 0 1 30.812000274658203,14.227049827575684 a23.84490966796875,23.84490966796875 0 0 1 1.4809999465942383,8.29248046875 a24.18869972229004,24.18869972229004 0 0 1 -8.98779010772705,18.729999542236328 a23.813440322875977,23.813440322875977 0 0 1 -6.72022008895874,3.789069890975952 z" fill="#3f3d56" id="svg_23"/><path d="M567.64990234375,126.98898315429688 a23.549379348754883,23.549379348754883 0 0 1 -8.80029010772705,18.34000015258789 a29.988269805908203,29.988269805908203 0 0 1 -19.699710845947266,-41.29999923706055 a23.505189895629883,23.505189895629883 0 0 1 28.5,22.959999084472656 z" fill="#820024" id="svg_24"/><ellipse cx="265.009765625" cy="231.8290252685547" rx="14" ry="17" fill="#820024" id="svg_25"/><polygon points="450.071 292.005 462.331 292.005 468.164 260.208 450.069 260.209 450.071 292.005" fill="#ffb8b8" id="svg_26"/><path d="M446.943603515625,288.0024719238281 l24.143800735473633,-0.0010000000474974513 h0.0010000000474974513 a15.3860502243042,15.3860502243042 0 0 1 15.386480331420898,15.38623046875 v0.5 l-39.530521392822266,0.0014600000577047467 z" fill="#2f2e41" id="svg_27"/><path d="M464.30133056640625,278.9544982910156 q-0.2142300009727478,0 -0.43018001317977905,-0.020509999245405197 l-16.966550827026367,-1.2353500127792358 a4.499919891357422,4.499919891357422 0 0 1 -3.8093199729919434,-6.029300212860107 l22.706539154052734,-51.01464080810547 a3.498120069503784,3.498120069503784 0 0 0 -0.1962900012731552,-2.798830032348633 a3.4508399963378906,3.4508399963378906 0 0 0 -2.2111799716949463,-1.7597700357437134 c-10.677249908447266,-2.7909998893737793 -38.071998596191406,-10.222649574279785 -61.786380767822266,-18.917999267578125 c-10.159910202026367,-3.7255799770355225 -16.558839797973633,-9.109370231628418 -19.018800735473633,-16.001949310302734 c-3.2431600093841553,-9.086910247802734 1.5546900033950806,-17.374000549316406 1.7604999542236328,-17.7216796875 l0.16088999807834625,-0.272460013628006 l22.314699172973633,2.028320074081421 l24.191160202026367,2.057620048522949 l53.013431549072266,28.427730560302734 a20.086000442504883,20.086000442504883 0 0 1 8.818599700927734,25.7841796875 L468.40753173828125,276.2875061035156 A4.496890068054199,4.496890068054199 0 0 1 464.30133056640625,278.9544982910156 z" fill="#2f2e41" id="svg_28"/><circle cx="410.705322265625" cy="39.72019958496094" r="24.5610294342041" fill="#ffb8b8" id="svg_29"/><polygon points="443.071 295.005 455.331 295.005 461.164 263.208 443.069 263.209 443.071 295.005" fill="#ffb8b8" id="svg_30"/><path d="M439.943603515625,291.0024719238281 l24.143800735473633,-0.0010000000474974513 h0.0010000000474974513 a15.3860502243042,15.3860502243042 0 0 1 15.386480331420898,15.38623046875 v0.5 l-39.530521392822266,0.0014600000577047467 z" fill="#2f2e41" id="svg_31"/><path d="M457.30133056640625,281.9544982910156 q-0.2142300009727478,0 -0.43018001317977905,-0.020509999245405197 l-16.966550827026367,-1.2353500127792358 a4.499919891357422,4.499919891357422 0 0 1 -3.8093199729919434,-6.029300212860107 l22.706539154052734,-51.01464080810547 a3.498120069503784,3.498120069503784 0 0 0 -0.1962900012731552,-2.798830032348633 a3.4508399963378906,3.4508399963378906 0 0 0 -2.2111799716949463,-1.7597700357437134 c-10.677249908447266,-2.7909998893737793 -38.071998596191406,-10.222649574279785 -61.786380767822266,-18.917999267578125 c-10.159910202026367,-3.7255799770355225 -16.558839797973633,-9.109370231628418 -19.018800735473633,-16.001949310302734 c-3.2431600093841553,-9.086910247802734 1.5546900033950806,-17.374000549316406 1.7604999542236328,-17.7216796875 l0.16088999807834625,-0.272460013628006 l22.314699172973633,2.028320074081421 l24.191160202026367,2.057620048522949 l53.013431549072266,28.427730560302734 a20.086000442504883,20.086000442504883 0 0 1 8.818599700927734,25.7841796875 L461.40753173828125,279.2875061035156 A4.496890068054199,4.496890068054199 0 0 1 457.30133056640625,281.9544982910156 z" fill="#2f2e41" id="svg_32"/><path d="M418.28009033203125,78.2083740234375 l-26,-9 s-16.32200050354004,12.539999961853027 -8.480999946594238,43.6485595703125 a77.01209259033203,77.01209259033203 0 0 1 -3.400089979171753,48.32025146484375 a49.77870178222656,49.77870178222656 0 0 1 -2.6188900470733643,5.531189918518066 s29,35 56,9 l-10.5,-50.5 S439.78009033203125,91.7083740234375 418.28009033203125,78.2083740234375 z" fill="#820024" id="svg_33"/><path d="M413.7547607421875,65.11651611328125 c-3.495620012283325,-5.232309818267822 -6.254350185394287,-12.487560272216797 -2.4056499004364014,-17.465909957885742 c3.799069881439209,-4.914159774780273 11.292149543762207,-4.190179824829102 17.11054039001465,-6.364659786224365 c8.104000091552734,-3.028670072555542 12.804089546203613,-12.549300193786621 11.338239669799805,-21.075639724731445 s-8.310310363769531,-15.594420433044434 -16.46405029296875,-18.4864501953125 s-17.348390579223633,-1.9514800310134888 -25.333120346069336,1.3788700103759766 c-9.829310417175293,4.099699974060059 -18.261150360107422,12.030280113220215 -21.796859741210938,22.076250076293945 s-1.6455999612808228,22.10807991027832 5.6892900466918945,29.82962989807129 c7.863810062408447,8.278340339660645 20.2055606842041,10.484539985656738 31.622760772705078,10.350669860839844 " fill="#2f2e41" id="svg_34" class=""/><path d="M390.9078369140625,20.48394775390625 c-4.404839992523193,3.5858700275421143 -11.125269889831543,1.9931800365447998 -15.853599548339844,-1.1538699865341187 s-8.565070152282715,-7.6282501220703125 -13.680999755859375,-10.095660209655762 c-9.019220352172852,-4.349949836730957 -19.923789978027344,-1.4582500457763672 -28.701709747314453,3.3600900173187256 s-16.559160232543945,11.475000381469727 -25.831239700317383,15.256170272827148 s-21.10392951965332,3.9680800437927246 -28.124839782714844,-3.171610116958618 a25.73200035095215,25.73200035095215 0 0 0 37.71009826660156,30.371450424194336 c10.15939998626709,-6.188389778137207 15.771050453186035,-19.163700103759766 27.16592025756836,-22.579330444335938 c6.305500030517578,-1.8900799751281738 13.076319694519043,-0.3677699863910675 19.449169158935547,1.281059980392456 s13.017829895019531,3.4304099082946777 19.449119567871094,2.026740074157715 s12.446999549865723,-7.183119773864746 11.628800392150879,-13.714750289916992 z" fill="#2f2e41" id="svg_35"/><path d="M530.0383911132812,125.29116821289062 a10.742650032043457,10.742650032043457 0 0 0 -15.862520217895508,-4.441579818725586 L418.70611572265625,99.42245483398438 l-1.1866400241851807,23.331939697265625 l94.21678161621094,13.725580215454102 a10.800909996032715,10.800909996032715 0 0 0 18.302139282226562,-11.188779830932617 z" fill="#ffb8b8" id="svg_36"/><path d="M435.44512939453125,101.56585693359375 l-5.827000141143799,23.619659423828125 a4.816880226135254,4.816880226135254 0 0 1 -6.502999782562256,3.3034000396728516 l-22.442520141601562,-9.197529792785645 a13.37736988067627,13.37736988067627 0 0 1 6.484370231628418,-25.957000732421875 l24.067720413208008,2.282550096511841 a4.816870212554932,4.816870212554932 0 0 1 4.220419883728027,5.948880195617676 z" fill="#820024" id="svg_37" class="" fill-opacity="1"/><circle cx="519.009765625" cy="136.8290252685547" r="7" fill="#820024" id="svg_38"/><path d="M829,363.8290100097656 a1.0030800104141235,1.0030800104141235 0 0 1 -1,1 h-827 a1,1 0 0 1 0,-2 h827 A1.0030800104141235,1.0030800104141235 0 0 1 829,363.8290100097656 z" fill="#3f3d56" id="svg_39"/></g></svg>